/* XPM */
static char *result[] = {
/* columns rows colors chars-per-pixel */
"60 60 233 2 ",
"   c #010202",
".  c #0B0102",
"X  c #030902",
"o  c #090802",
"O  c #03020B",
"+  c #0A020A",
"@  c #060B0E",
"#  c #120202",
"$  c #160308",
"%  c #031508",
"&  c #020C12",
"*  c #0A0914",
"=  c #021416",
"-  c #03151A",
";  c #021C1D",
":  c #081917",
">  c #171817",
",  c #17120C",
"<  c #250200",
"1  c #2B0102",
"2  c #280908",
"3  c #350202",
"4  c #3C0303",
"5  c #3D0A04",
"6  c #3C0A09",
"7  c #340B01",
"8  c #36140B",
"9  c #261918",
"0  c #2E0F15",
"q  c #01231C",
"w  c #08211B",
"e  c #0E2116",
"r  c #28231B",
"t  c #352318",
"y  c #031D22",
"u  c #0C1D25",
"i  c #161E23",
"p  c #000B23",
"a  c #261E25",
"s  c #351E28",
"d  c #062729",
"f  c #192627",
"g  c #173533",
"h  c #232423",
"j  c #2B2425",
"k  c #2D2D2C",
"l  c #25292B",
"z  c #28332E",
"x  c #272B34",
"c  c #392B37",
"v  c #2E3535",
"b  c #37332F",
"n  c #440503",
"m  c #4C0102",
"M  c #440A04",
"N  c #4A0B02",
"B  c #460A0B",
"V  c #550202",
"C  c #5C0102",
"Z  c #560607",
"A  c #47130A",
"S  c #491918",
"D  c #4E0C10",
"F  c #620103",
"G  c #680204",
"H  c #7E0201",
"J  c #7A0603",
"K  c #741408",
"L  c #761212",
"P  c #54271E",
"I  c #522831",
"U  c #6F352A",
"Y  c #163A50",
"T  c #313845",
"R  c #473F4C",
"E  c #384245",
"W  c #4C4C4C",
"Q  c #444746",
"!  c #5E524D",
"~  c #4F4C53",
"^  c #485252",
"/  c #555A55",
"(  c #565756",
")  c #4B4C49",
"_  c #634954",
"`  c #57615A",
"'  c #69645D",
"]  c #5A5C61",
"[  c #675B69",
"{  c #596966",
"}  c #656465",
"|  c #686768",
" . c #756C6E",
".. c #767A7B",
"X. c #757975",
"o. c #666E76",
"O. c #8B0203",
"+. c #890508",
"@. c #920103",
"#. c #97060A",
"$. c #8C1604",
"%. c #8C1A04",
"&. c #8F1A08",
"*. c #881504",
"=. c #941C03",
"-. c #9D1D02",
";. c #9C1908",
":. c #961514",
">. c #841013",
",. c #AE0302",
"<. c #A40309",
"1. c #B40304",
"2. c #BC0403",
"3. c #BD0C02",
"4. c #BA0908",
"5. c #A21601",
"6. c #AD1601",
"7. c #A31C02",
"8. c #AA1C02",
"9. c #A41C08",
"0. c #AA1C0A",
"q. c #A01609",
"w. c #B31403",
"e. c #B41904",
"r. c #BC0614",
"t. c #A91816",
"y. c #AB0617",
"u. c #9C2201",
"i. c #96251B",
"p. c #A32102",
"a. c #AA2103",
"s. c #AA2209",
"d. c #A2220C",
"f. c #AF2211",
"g. c #8E1524",
"h. c #A5272A",
"j. c #C50302",
"k. c #CB0202",
"l. c #C30B03",
"z. c #C50409",
"x. c #CB030A",
"c. c #C70A08",
"v. c #D20102",
"b. c #D90101",
"n. c #D4030A",
"m. c #D70607",
"M. c #CA0011",
"N. c #D5121A",
"B. c #D40411",
"V. c #E30102",
"C. c #E30A05",
"Z. c #E31718",
"A. c #8B403D",
"S. c #817C7B",
"D. c #8F6D68",
"F. c #91887D",
"G. c #5B7B94",
"H. c #607D8B",
"J. c #857C83",
"K. c #5B8898",
"L. c #5A909C",
"P. c #6E8D9D",
"I. c #5B93A5",
"U. c #5B93B1",
"Y. c #5C88A1",
"T. c #6891AA",
"R. c #648FAF",
"E. c #7CAECD",
"W. c #7ABAD6",
"Q. c #79C6DC",
"!. c #7DC3EB",
"~. c #79C6E8",
"^. c #7AC7F1",
"/. c #8E928E",
"(. c #989596",
"). c #888990",
"_. c #9FA19C",
"`. c #A3A69D",
"'. c #9FB7A7",
"]. c #A6A7A7",
"[. c #ABB3A8",
"{. c #B2B3AE",
"}. c #B7B9AC",
"|. c #ADB4B4",
" X c #B5B5B4",
".X c #BBB5B5",
"XX c #B5B5B9",
"oX c #B9B7BA",
"OX c #BAB9BC",
"+X c #B7B9B4",
"@X c #B3AFB3",
"#X c #C4AEBC",
"$X c #C1B9BB",
"%X c #99B8C6",
"&X c #83B9D6",
"*X c #90B7D4",
"=X c #A6BBC6",
"-X c #BDBBC5",
";X c #89BEE6",
":X c #C4BBC6",
">X c #85C7DD",
",X c #98C7DA",
"<X c #9DC2CB",
"1X c #A3CEDF",
"2X c #8DC3E2",
"3X c #83C3EB",
"4X c #84CCEB",
"5X c #8BCBEE",
"6X c #85C6E5",
"7X c #93C6E4",
"8X c #96CEED",
"9X c #87D1EA",
"0X c #84CDF3",
"qX c #8BCCF3",
"wX c #8CC9F8",
"eX c #92CBF4",
"rX c #8AD2F3",
"tX c #8ED9FC",
"yX c #93D6F9",
"uX c #A7CDE6",
"iX c #A9D5E9",
"pX c #B8DCEB",
"aX c #BBDAF4",
"sX c #C1C1C3",
"dX c #C1DBEF",
"fX c #D5E8EF",
"gX c #EEF6FE",
"hX c #FEFAF5",
"jX c #F5FDFC",
"kX c #FDFDFE",
"lX c #F9F5F7",
"zX c #EEEDEB",
"xX c None",
/* pixels */
"xXxXxXxXxXxXxXxXxXxXxXxXxXxXxXxXxXxXxXxXxXxXxXxXxXxXxXxXxXxXxXxXxXxXxXxXxXxXxXxXxXxXxXxXxXxXxXxXxXxXxXxXxXxXxXxXxXxXxXxX",
"xXxXxXxXxXxXxXxXxXxXxXxXxXxXxXxXxXxXxXxXxXxXxXxXxXxXxXxXxXxXxXxXxXxXxXxXxXxXxXxXxXxXxXxXxXxXxXxXxXxXxXxXxXxXxXxXxXxXxXxX",
"xXxXxXxXxXxXxXxXxXxXxXxXxXxXxXxXxXxXxXxXxXxXxXxXxXxXxXxX                    / xXxXxXxXxXxXxXxXxXxXxXxXxXxXxXxXxXxXxXxXxX",
"xXxXxXxXxXxXxXxXxXxXxXxXxXxXxXxXxXxXxXxXxXxXxXxXxXxXxXxX  z r f h f > h x + o.xXxXxXxXxXxXxXxXxXxXxXxXxXxXxXxXxXxXxXxXxX",
"xXxXxXxXxXxXxXxXxXxXxXxXxXxXxXxXxXxXxXxXxXxXxXxXxXxXxXxX  h             e   ' xXxXxXxXxXxXxXxXxXxXxXxXxXxXxXxXxXxXxXxXxX",
"xXxXxXxXxXxXxXxXxXxXxXxXxXxXxXxXxXxXxXxXxX) ` / ( / / _ 1.1.1.4.1.4.1.1.r.4.h.! ( / ( _ ( ^ xXxXxXxXxXxXxXxXxXxXxXxXxXxX",
"xXxXxXxXxXxXxXxXxXxXxXxXxXxXxXxXxXxXxXxXxX.     .   . B m.k.k.v.k.b.k.k.v.b.,.. +       X X xXxXxXxXxXxXxXxXxXxXxXxXxXxX",
"xXxXxXxXxXxXxXxXxXxXxXxXxXxXxXxXxXxXxXxXxXX d d - q % S j.k.j.k.k.j.k.k.v.j.r.: y : q d : . xXxXxXxXxXxXxXxXxXxXxXxXxXxX",
"xXxXxXxXxXxXxXxXxXxXxXxXxXxXxXxXxXxXxXxXD.J :.J +.O.O.+.z.k.j.v.j.j.j.z.j.j.,.O.H O.+.+.+.H xXxXxXxXxXxXxXxXxXxXxXxXxXxX",
"xXxXxXxXxXxXxXxXxXxXxXxXxXxXxXxXxX  .   H Z.k.k.m.k.n.k.j.k.v.3.c.v.k.z.k.n.n.n.n.v.v.k.v.B.4 O   ] xXxXxXxXxXxXxXxXxXxX",
"xXxXxXxXxXxXxXxXxXxXxXxXxXxXxXxXxX  R q +.v.k.k.j.v.j.k.j.b.j.j.k.b.k.v.k.k.k.k.k.j.j.j.k.k.P g   xXxXxXxXxXxXxXxXxXxXxX",
"xXxXxXxXxXxXxXxXxXxXxXxXxXxXxXxXxX  s . +.k.x.z.2.k.j.z.c.j.k.k.4.2.j.z.c.3.2.j.j.2.2.x.j.3.n % X xXxXxXxXxXxXxXxXxXxXxX",
"xXxXxXxXxXxXxXxXxXxXxXxXxXxXxXxXxXX 9   O.k.l.j.k.k.x.j.j.v.x.+.  4 2 1 3 4 4 3 3 4 3 3 3 1 $ O   a E ^   xXxXxXxXxXxXxX",
"xXxXxXxXxXxXxXxXxXxXxXxXxXxXxXxXxX  I   #.k.k.k.j.b.k.k.x.2.M.g.w i ; u y y ; d q u i ; u w u i f & O O   xXxXxXxXxXxXxX",
"xXxXxXxXxXxXxXxXxXxXxXxXxXxXxXxXxXO d   O.m.j.z.k.v.z.z.v.C.m.#.                            O *   O 9 t   xXxXxXxXxXxXxX",
"xXxXxXxXxXxXxXxXxXxXxXxXxXxXxXxXF.+.:.O.<.v.l.j.j.k.j.2.+.J #. .I.U.R.R.R.I.P.(.(././.(.(./.L.I.T.G.O l   xXxXxXxXxXxXxX",
"xXxXxXxXxXxXxXxXxXxXxXxXxXO     3 N.v.v.k.k.x.k.z.j.m.y.X d O U.tX8XrX5XrX0XiXkXkXkXjXkXkXjXyXqXyXW.  z   xXxXxXxXxXxXxX",
"xXxXxXxXxXxXxXxXxXxXxXxXxX~ o z P 2.j.v.l.k.k.k.k.v.V.1.  * . K.0X6X3X4X5X4XiXkXkXkXhXkXhXhX3X^.9XE.  0 O xXxXxXxXxXxXxX",
"xXxXxXxXxXxXxXxXxXxXxXxXxXE   % n x.m.j.j.j.k.v.2.2.2.t.v T 1 P.rX6XrX2X5X3XuXjXlXjXlXlXjXgX7X0X5XE.Y E p xXxXxXxXxXxXxX",
"xXxXxXxXxXxXo k , : > > > + $ . N k.j.k.j.z.B.z.Z % . Q XX@X}.%XeX3X3X6XqX3XuXjXjXkXlXjXjXhXzXgXlXfXQ.>X7XK.  g   xXxXxX",
"xXxXxXxXxXxX. > $ . # . # $ +   B k.m.3.v.l.k.j.C %   ^ .XOX}.,XwXqX2X4X0X3XuXkXkXkXhXhXkXkXhXjXjXfX3XwXyXL.& &   xXxXxX",
"xXxXxXxXxXxX. d & & = o X   .   m v.v.k.j.k.k.k.C &   ~ {.$X#X<X0X4X9X6X9X4XiXjXkXkXhXkXkXkXlXkXkXfXQ.8XeXK.O l   xXxXxX",
"xXxXxXxXxXF.O.:.<.#.#.#.#.B   X M j.k.k.c.v.x.j.C & . Q  XOX].|.=X<X%X6XQ.4X7XpXaXdXdXpXdXaXaXaXaXiX!.4XwXK.  i   xXxXxX",
"xXxX>     < N.j.V.b.j.b.B.C .   V k.x.k.2.k.k.k.V -   ) |.XXOX[..X#X@X,X5XwX3X&X^.~.!.~.~.Q.~.!.~.&X5X6XrXL.O i O xXxXxX",
"xXxXW   g P j.k.k.j.k.k.k.C     V k.k.k.k.j.k.M.m X O ) OX<X$X.XoX|.|.,XqXqX5XqXqX5X5XqXqXqX5XqXrX4X5X5XyXL.O @ . xXxXxX",
"xXxXW   : m j.v.k.j.j.k.k.C X   m 3.c.l.z.k.k.c.J A 6 U `.].`.].-XOX-X*X2X2X>X7X2X7X>X7X2X7X&X8X;X&X&X&X*XH.* b > xXxXxX",
"xXxXW   = m j.v.v.j.c.x.k.F O   5 7.9.-.w.j.v.v.k.x.x.r..     X.oX[.[.XX X{.{.{. X{.{. X X{.{.{.+X_.  , O xXxXxXxXxXxXxX",
"xXxXW   y n z.k.k.k.k.k.k.C     M 6.0.7.6.v.x.j.k.v.v.1.  h   F.:XoX+XXXoXoX XXXoX.X XoX XXXoXXXOX].  k   xXxXxXxXxXxXxX",
"xXxXW   - n z.k.k.k.j.k.x.F .   4 7.p.u.e.k.k.z.j.j.j.2.O : X J.:XXX}.oXoXOXoXoXoXoXoXoX$XoXoXXXOX].  l . xXxXxXxXxXxXxX",
"xXxXW   - n w.w.w.6.w.w.8.N     5 -.-.-.w.k.j.x.j.j.j.z.<.<.#.A.{ | o.} | | } } | | } | } ' | } | /   j   xXxXxXxXxXxXxX",
"xXxXW   ; 7 -.7.-.-.u.7.0.Z     5 7.9.7.w.k.k.x.k.k.v.v.k.v.C.@.      .           X     X           X j O xXxXxXxXxXxXxX",
"xXxXW   = 5 5.7.8.7.7.7.8.N     n 8.9.8.3.k.v.j.k.k.k.3.k.v.v.>.- - = q - - = = - - - - = - y = : :   l   xXxXxXxXxXxXxX",
"xXxXW   ; n 8.;.-.d.9.7.7.M     4 a.9.7.6.3.3.w.l.k.k.k.j.x.r.@.G C F F F F F C F F F F F G Z C G F   l   xXxXxXxXxXxXxX",
"xXxXW   q n -.u.p.u.7.8.7.N     5 8.;.8.p.8.8.7.3.j.z.j.j.v.v.j.j.j.x.x.k.k.k.k.k.k.k.k.k.n.x.k.c.,.. t   xXxXxXxXxXxXxX",
"xXxXW . - 4 7.s.7.7.7.7.7.N     4 p.-.7.u.7.u.8.l.k.k.j.k.v.v.j.k.v.v.j.k.k.j.k.k.k.k.j.k.j.k.k.k.,.  j   xXxXxXxXxXxXxX",
"xXxX)   y 6 5.9.6.s.0.7.7.N     5 p.7.8.7.6.7.6.3.k.k.k.x.x.c.z.c.k.k.3.k.k.k.k.x.k.k.k.z.j.j.v.n.1.O l   xXxXxXxXxXxXxX",
"xXxXW   - 2 p.9.-.-.-.u.6.N     5 p.9.8.u.8.8.p.6.w.6.w.j.j.j.j.k.k.k.j.k.k.j.j.k.k.j.j.v.k.e.8.e.%.  l   xXxXxXxXxXxXxX",
"xXxXW   h 8 8.5.5.8.7.7.9.N     4 7.7.p.u.6.7.u.u.u.u.8.v.v.k.j.k.v.k.2.k.k.x.k.k.k.k.k.j.j.7.8.8.%.  h   xXxXxXxXxXxXxX",
"xXxXQ     7 5.f.8.s.7.8.9.M     4 7.9.7.u.5.6.u.7.7.-.7.j.k.k.j.k.v.x.k.k.k.j.l.k.k.j.j.m.k.9.7.0.&.. c   xXxXxXxXxXxXxX",
"xXxXX.( o.! J &.*.$.*.$.=.5 O   5 p.-.8.p.8.u.u.8.8.7.7.3.c.l.3.w.3.l.3.l.l.3.l.3.3.3.3.l.w.u.8.8.=.  f   xXxXxXxXxXxXxX",
"xXxXxXxXxXxX  >           . # . 4 -.p.7.p.7.6.a.9.9.d.9.u.-.-.u.-.u.-.u.;.d.=.-.p.6.7.u.p.7.9.u.8.&.  j   xXxXxXxXxXxXxX",
"xXxXxXxXxXxXX k l h h j a * .   B a.-.7.7.7.7.-.7.a.-.p.8.8.7.8.8.8.8.8.8.7.7.8.0.9.q.-.8.-.9.7.8.&.  j   xXxXxXxXxXxXxX",
"xXxXxXxXxXxX          o   O + X 3 a.p.8.-.p.9.7.7.a.7.6.8.7.8.8.9.7.7.6.p.7.s.-.;.;.0.8.p.7.8.u.8.&.  j   xXxXxXxXxXxXxX",
"xXxXxXxXxXxXxXxXxXxXxXxXxXb   = 5 7.-.7.7.7.9.9.u.u.;.;.6 6 6 6 5 6 5 5 n n n 5 A 7 K p.7.7.9.7.a.&.  j   xXxXxXxXxXxXxX",
"xXxXxXxXxXxXxXxXxXxXxXxXxXQ   - 4 s.s.7.7.8.9.7.-.-.s.&.; q y ; ; ; ; ; q d & X     K 6.8.7.9.p.8.&.  j   xXxXxXxXxXxXxX",
"xXxXxXxXxXxXxXxXxXxXxXxXxXQ X : 3 -.7.-.7.p.u.8.8.8.e.$.      .               $ $   K a.7.u.9.-.8.&.  j   xXxXxXxXxXxXxX",
"xXxXxXxXxXxXxXxXxXxXxXxXxXQ   - 6 s.7.9.9.7.p.e.$.L +.U ................S.J.} . 2   L 6.8.-.8.7.8.&.  j   xXxXxXxXxXxXxX",
"xXxXxXxXxXxXxXxXxXxXxXxXxXQ   = 6 8.-.-.u.8.a.;.7 % + ` xXxXxXxXxXxXxXxXxXxXxX  a X K 8.-.7.9.-.8.$.  j   xXxXxXxXxXxXxX",
"xXxXxXxXxXxXxXxXxXxXxXxXxX(   f S -.e.p.8.8.6.=.P h   | xXxXxXxXxXxXxXxXxXxXxX  c w K p.p.5.7.7.9.:.% T   xXxXxXxXxXxXxX",
"xXxXxXxXxXxXxXxXxXxXxXxXxX9 O O 1 i.q.q.9.;.0.i.<     ^ xXxXxXxXxXxXxXxXxXxXxXX .   J t.;.8.5.5.0.@..   X xXxXxXxXxXxXxX",
"xXxXxXxXxXxXxXxXxXxXxXxXxXxXxXxXxX  t 1 1 0 6 < xXxXxXxXxXxXxXxXxXxXxXxXxXxXxXxXxXxXS.  t 3 3 t o ' xXxXxXxXxXxXxXxXxXxX",
"xXxXxXxXxXxXxXxXxXxXxXxXxXxXxXxXxXX z j i g l   xXxXxXxXxXxXxXxXxXxXxXxXxXxXxXxXxXxXxX  k f f x   X.xXxXxXxXxXxXxXxXxXxX",
"xXxXxXxXxXxXxXxXxXxXxXxXxXxXxXxXxX.   O   X     xXxXxXxXxXxXxXxXxXxXxXxXxXxXxXxXxXxXxXO       . X ' xXxXxXxXxXxXxXxXxXxX",
"xXxXxXxXxXxXxXxXxXxXxXxXxXxXxXxXxXxXxXxXxXxXxXxXxXxXxXxXxXxXxXxXxXxXxXxXxXxXxXxXxXxXxXxXxXxXxXxXxXxXxXxXxXxXxXxXxXxXxXxX",
"xXxXxXxXxXxXxXxXxXxXxXxXxXxXxXxXxXxXxXxXxXxXxXxXxXxXxXxXxXxXxXxXxXxXxXxXxXxXxXxXxXxXxXxXxXxXxXxXxXxXxXxXxXxXxXxXxXxXxXxX",
"xXxXxXxXxXxXxXxXxXxXxXxXxXxXxXxXxXxXxXxXxXxXxXxXxXxXxXxXxXxXxXxXxXxXxXxXxXxXxXxXxXxXxXxXxXxXxXxXxXxXxXxXxXxXxXxXxXxXxXxX",
"xXxXxXxXxXxXxXxXxXxXxXxXxXxXxXxXxXxXxXxXxXxXxXxXxXxXxXxXxXxXxXxXxXxXxXxXxXxXxXxXxXxXxXxXxXxXxXxXxXxXxXxXxXxXxXxXxXxXxXxX",
"xXxXxXxXxXxXxXxXxXxXxXxXxXxXxXxXxXxXxXxXxXxXxXxXxXxXxXxXxXxXxXxXxXxXxXxXxXxXxXxXxXxXxXxXxXxXxXxXxXxXxXxXxXxXxXxXxXxXxXxX",
"xXxXxXxXxXxXxXxXxXxXxXxXxXxXxXxXxXxXxXxXxXxXxXxXxXxXxXxXxXxXxXxXxXxXxXxXxXxXxXxXxXxXxXxXxXxXxXxXxXxXxXxXxXxXxXxXxXxXxXxX",
"xXxXxXxXxXxXxXxXxXxXxXxXxXxXxXxXxXxXxXxXxXxXxXxXxXxXxXxXxXxXxXxXxXxXxXxXxXxXxXxXxXxXxXxXxXxXxXxXxXxXxXxXxXxXxXxXxXxXxXxX"
};
