/* XPM */
static char *result[] = {
/* columns rows colors chars-per-pixel */
"60 60 233 2 ",
"   c #010202",
".  c #0B0102",
"X  c #030902",
"o  c #090802",
"O  c #03020B",
"+  c #0A020A",
"@  c #060B0E",
"#  c #120202",
"$  c #160308",
"%  c #031508",
"&  c #020C12",
"*  c #0A0914",
"=  c #021416",
"-  c #03151A",
";  c #021C1D",
":  c #071917",
">  c #171817",
",  c #17120C",
"<  c #250200",
"1  c #2B0102",
"2  c #280908",
"3  c #350202",
"4  c #3C0303",
"5  c #3D0A04",
"6  c #3C0A09",
"7  c #340B01",
"8  c #36140B",
"9  c #261918",
"0  c #2E0F15",
"q  c #01231C",
"w  c #08211B",
"e  c #0E2116",
"r  c #28231B",
"t  c #352318",
"y  c #031D22",
"u  c #0C1D25",
"i  c #161E23",
"p  c #000B23",
"a  c #261E25",
"s  c #351E28",
"d  c #062729",
"f  c #192627",
"g  c #173533",
"h  c #232423",
"j  c #2B2425",
"k  c #2C2D2C",
"l  c #25292B",
"z  c #28332E",
"x  c #272B34",
"c  c #392B37",
"v  c #2E3535",
"b  c #37322F",
"n  c #440503",
"m  c #4C0102",
"M  c #440A04",
"N  c #4A0B02",
"B  c #460A0B",
"V  c #550202",
"C  c #5C0102",
"Z  c #560607",
"A  c #47130A",
"S  c #491918",
"D  c #4E0C10",
"F  c #620103",
"G  c #680204",
"H  c #7E0201",
"J  c #7A0603",
"K  c #741408",
"L  c #761212",
"P  c #54271E",
"I  c #522831",
"U  c #6F352A",
"Y  c #163A50",
"T  c #313845",
"R  c #473F4C",
"E  c #384245",
"W  c #4C4C4C",
"Q  c #454746",
"!  c #5E524D",
"~  c #4F4C53",
"^  c #495152",
"/  c #555A55",
"(  c #575656",
")  c #4C4D4A",
"_  c #634A53",
"`  c #57605B",
"'  c #69655D",
"]  c #595C61",
"[  c #675B69",
"{  c #596966",
"}  c #656465",
"|  c #686768",
" . c #756B6E",
".. c #767A7B",
"X. c #757875",
"o. c #666D77",
"O. c #8B0203",
"+. c #890508",
"@. c #920103",
"#. c #97060A",
"$. c #8C1604",
"%. c #8C1A04",
"&. c #8F1A08",
"*. c #881504",
"=. c #941C03",
"-. c #9D1D02",
";. c #9C1908",
":. c #961514",
">. c #841013",
",. c #AE0302",
"<. c #A40309",
"1. c #B40304",
"2. c #BC0403",
"3. c #BD0C02",
"4. c #BA0908",
"5. c #A21601",
"6. c #AD1601",
"7. c #A31C02",
"8. c #AA1C02",
"9. c #A41C08",
"0. c #AA1C0A",
"q. c #A01609",
"w. c #B31403",
"e. c #B41904",
"r. c #BC0614",
"t. c #A91816",
"y. c #AB0617",
"u. c #9C2201",
"i. c #96251B",
"p. c #A32102",
"a. c #AA2103",
"s. c #AA2209",
"d. c #A2220C",
"f. c #AF2211",
"g. c #8E1524",
"h. c #A5272A",
"j. c #C50302",
"k. c #CB0202",
"l. c #C30B03",
"z. c #C50409",
"x. c #CB030A",
"c. c #C70A08",
"v. c #D20102",
"b. c #D90101",
"n. c #D4030A",
"m. c #D70607",
"M. c #CA0011",
"N. c #D5121A",
"B. c #D40411",
"V. c #E30102",
"C. c #E30A05",
"Z. c #E31718",
"A. c #8B403D",
"S. c #827C7B",
"D. c #8E6D68",
"F. c #91887D",
"G. c #5B7B94",
"H. c #607D8B",
"J. c #857B83",
"K. c #5B8898",
"L. c #5A909C",
"P. c #6E8D9D",
"I. c #5B93A5",
"U. c #5B93B1",
"Y. c #5C88A1",
"T. c #6891AA",
"R. c #648FAF",
"E. c #7CAECD",
"W. c #7ABAD6",
"Q. c #79C6DC",
"!. c #7DC3EB",
"~. c #79C6E8",
"^. c #7AC7F1",
"/. c #8E928E",
"(. c #989596",
"). c #888990",
"_. c #9FA19C",
"`. c #A3A69D",
"'. c #9FB7A7",
"]. c #A6A7A7",
"[. c #ABB3A8",
"{. c #B2B3AE",
"}. c #B7B9AC",
"|. c #ADB4B4",
" X c #B5B5B4",
".X c #BBB5B5",
"XX c #B5B5B9",
"oX c #B9B7BA",
"OX c #BAB9BC",
"+X c #B7B9B4",
"@X c #B3AFB3",
"#X c #C4AEBC",
"$X c #C1B9BB",
"%X c #99B8C6",
"&X c #83B9D6",
"*X c #90B7D4",
"=X c #A6BBC6",
"-X c #BDBBC5",
";X c #89BEE6",
":X c #C4BBC6",
">X c #85C7DD",
",X c #98C7DA",
"<X c #9DC2CB",
"1X c #A3CEDF",
"2X c #8DC3E2",
"3X c #83C3EB",
"4X c #84CCEB",
"5X c #8BCBEE",
"6X c #85C6E5",
"7X c #93C6E4",
"8X c #96CEED",
"9X c #87D1EA",
"0X c #84CDF3",
"qX c #8BCCF3",
"wX c #8CC9F8",
"eX c #92CBF4",
"rX c #8AD2F3",
"tX c #8ED9FC",
"yX c #93D6F9",
"uX c #A7CDE6",
"iX c #A9D5E9",
"pX c #B8DCEB",
"aX c #BBDAF4",
"sX c #C1C1C3",
"dX c #C1DBEF",
"fX c #D5E8EF",
"gX c #EEF6FE",
"hX c #FEFAF5",
"jX c #F5FDFC",
"kX c #FDFDFE",
"lX c #F9F5F7",
"zX c #EEEDEB",
"xX c None",
/* pixels */
"xXxXxXxXxXxXxXxXxXxXxXxXxXxXxXxXxXxXxXxXxXxXxXxXxXxXxXxXxXxXxXxXxXxXxXxXxXxXxXxXxXxXxXxXxXxXxXxXxXxXxXxXxXxXxXxXxXxXxXxX",
"xXxXxXxXxXxXxXxXxXxXxXxXxXxXxXxXxXxXxXxXxXxXxXxXxXxXxXxXxXxXxXxXxXxXxXxXxXxXxXxXxXxXxXxXxXxXxXxXxXxXxXxXxXxXxXxXxXxXxXxX",
"xXxXxXxXxXxXxXxXxXxXxXxXxXxXxXxXxXxXxXxXxX/         X X         xXxXxXxXxXxXxXxXxXxXxXxXxXxXxXxXxXxXxXxXxXxXxXxXxXxXxXxX",
"xXxXxXxXxXxXxXxXxXxXxXxXxXxXxXxXxXxXxXxXxXo.+ x h h > h f h k X xXxXxXxXxXxXxXxXxXxXxXxXxXxXxXxXxXxXxXxXxXxXxXxXxXxXxXxX",
"xXxXxXxXxXxXxXxXxXxXxXxXxXxXxXxXxXxXxXxXxX'   :             h   xXxXxXxXxXxXxXxXxXxXxXxXxXxXxXxXxXxXxXxXxXxXxXxXxXxXxXxX",
"xXxXxXxXxXxXxXxXxXxXxXxXxXxX~ / _ / ( / ! h.4.r.1.1.4.1.4.1.1.1._ / / ( / ` Q xXxXxXxXxXxXxXxXxXxXxXxXxXxXxXxXxXxXxXxXxX",
"xXxXxXxXxXxXxXxXxXxXxXxXxXxX  X & X   + . ,.m.v.k.k.v.k.v.k.k.m.B .       O . xXxXxXxXxXxXxXxXxXxXxXxXxXxXxXxXxXxXxXxXxX",
"xXxXxXxXxXxXxXxXxXxXxXxXxXxXX : d = ; ; : r.j.v.k.k.j.k.j.j.k.k.S % q = d d X xXxXxXxXxXxXxXxXxXxXxXxXxXxXxXxXxXxXxXxXxX",
"xXxXxXxXxXxXxXxXxXxXxXxXxXxXH +.+.+.O.H O.,.j.k.l.j.j.j.b.j.j.z.+.+.O.H H :.J D.xXxXxXxXxXxXxXxXxXxXxXxXxXxXxXxXxXxXxXxX",
"xXxXxXxXxXxXxXxXxXxX]   O 4 n.v.k.k.k.b.b.n.n.k.z.v.b.z.4.v.k.j.k.v.v.m.x.k.Z.J   .   xXxXxXxXxXxXxXxXxXxXxXxXxXxXxXxXxX",
"xXxXxXxXxXxXxXxXxXxXxX  g P x.k.k.j.j.k.v.x.k.k.v.k.b.k.k.j.b.j.x.j.b.j.x.k.k.#.q I   xXxXxXxXxXxXxXxXxXxXxXxXxXxXxXxXxX",
"xXxXxXxXxXxXxXxXxXxXxXX % m 3.j.x.2.4.j.2.2.2.l.j.j.2.4.x.j.j.c.2.j.k.j.x.x.k.+.  k   xXxXxXxXxXxXxXxXxXxXxXxXxXxXxXxXxX",
"xXxXxXxXxXxXxX  ^ E a     $ 1 3 3 3 3 3 3 4 3 3 1 2 n   O.M.v.x.j.x.k.j.3.v.k.O.  r X xXxXxXxXxXxXxXxXxXxXxXxXxXxXxXxXxX",
"xXxXxXxXxXxXxX      & f u u u u y i u w q y u y y ; i ; g.x.2.x.k.k.b.k.k.k.k.#.O I   xXxXxXxXxXxXxXxXxXxXxXxXxXxXxXxXxX",
"xXxXxXxXxXxXxX  s > @ . * O     O     X       O         #.m.C.v.z.z.v.j.z.l.m.O.  q O xXxXxXxXxXxXxXxXxXxXxXxXxXxXxXxXxX",
"xXxXxXxXxXxXxX  k @ G.P.I.L./.(.(././.(.(.P.I.I.R.R.U.I. .#.J +.2.j.k.j.j.k.m.#.@.:.+.F.xXxXxXxXxXxXxXxXxXxXxXxXxXxXxXxX",
"xXxXxXxXxXxXxX  z X W.yXqXyXjXkXkXjXkXkXkXiX0XrXqXrX8XtXU.  d X y.b.j.z.j.x.k.v.k.v.N.3     O xXxXxXxXxXxXxXxXxXxXxXxXxX",
"xXxXxXxXxXxXxXO 0   E.qX^.6XjXkXkXhXkXkXjXiX4X5X6X3X6X0XK.. * X 1.V.b.l.k.k.k.j.v.k.2.P z o ~ xXxXxXxXxXxXxXxXxXxXxXxXxX",
"xXxXxXxXxXxXxXp E Y E.6X0X7XgXhXlXlXjXlXjXuX!.5X2XrX6X9XP.1 T v t.2.2.2.v.x.j.l.x.n.k.n % X E xXxXxXxXxXxXxXxXxXxXxXxXxX",
"xXxXxX  g   K.2X>XQ.fXlXgXzXlXjXkXlXkXjXjXuX3XwX6X3X5XeX%X.X|.XXR o @ Z z.M.x.j.j.j.k.m   # + > > > > , k o xXxXxXxXxXxX",
"xXxXxX  = @ L.yXqX!.fXjXjXhXkXkXjXhXkXkXkXuX!.9X4X7XqXwX,X{.OX+X^   X C k.l.l.v.3.m.j.N   + # # o # . $ , o xXxXxXxXxXxX",
"xXxXxX  f O K.wX5X;XfXkXkXlXkXkXkXhXkXkXkXiX4X9X6X9X4X4X%X#X$X}.~ . = Z k.k.k.j.x.v.k.Z O .   X @ @ & & d   xXxXxXxXxXxX",
"xXxXxX  >   K.qX6X~.iXaXaXaXdXdXpXdXaXpXpX7X!.~.6X%X<X=X=X].$X{.Q . & C j.x.n.x.l.k.j.M   X B #.#.#.#.<.:.O.F.xXxXxXxXxX",
"xXxXxXO f O K.rX6XqX>X~.^.~.Q.~.~.!.!.!.>X;XwXqX,X@X$X.X[..XXX X)   = V k.k.k.3.k.k.k.V   # C B.b.l.b.b.k.N.1     > xXxX",
"xXxXxX. @ O Y.yX4XrX4XyX5X5X5XqXqX5X5XqXqX4X4X5X,X@X|.:X XOX<X$X^   O m x.k.j.j.k.k.l.Z     C k.k.k.j.j.j.c.D g   ~ xXxX",
"xXxXxX> b * H.*XE.&X&X2X8X&X2X2X7X>X2X7X2X2X2X7X*X-XOX#X]._.].`.U B A J c.k.k.j.3.c.l.m X X C k.k.k.j.v.v.j.V ;   W xXxX",
"xXxXxXxXxXxXxXO , . _.$X X X{. X.X{. X{.{.{.{. X-X].[.oXX.X . # r.k.x.k.k.v.x.w.-.9.5.6 X   C k.x.j.j.k.v.j.m -   W xXxX",
"xXxXxXxXxXxXxX  b . `.$XXXoX X XXX X XOXXX XoXoX=X.X.X:XF.  j   1.k.v.k.l.v.k.w.7.8.6.n     F x.k.k.k.v.k.l.n y   W xXxX",
"xXxXxXxXxXxXxX  h   ].<XXXoXoXOXOXoXOXOXXXoXOXOX+X}.XX-XH.X : O 2.j.j.j.j.x.k.w.-.d.5.M   . F k.k.j.j.k.j.4.n -   W xXxX",
"xXxXxXxXxXxXxX  k   ( | [ | ' ' } } } } } } | } [ | o.} A.,.<.<.z.j.2.k.x.j.k.e.-.7.-.7   X B 6.w.e.e.w.3.w.M -   W xXxX",
"xXxXxXxXxXxXxX  r o     X   X X     X         X .   X   @.V.b.k.v.v.v.k.n.k.k.w.7.7.7.M     Z e.-.u.-.-.-.9.5 -   W xXxX",
"xXxXxXxXxXxXxX  l O : ; & ; - = - - - - = = - = ; = - ; >.k.k.k.2.v.k.j.l.k.k.3.7.0.5.M     M 7.6.7.5.8.7.8.7 -   W xXxX",
"xXxXxXxXxXxXxX  l   F G C Z G G F F F F F F F G F F C G @.r.x.2.k.x.k.l.3.3.3.w.7.-.7.n   O M 7.5.9.d.7.-.p.n -   W xXxX",
"xXxXxXxXxXxXxX  j . ,.j.k.k.v.k.k.k.k.k.k.j.k.k.x.x.j.j.j.v.b.j.j.j.k.3.7.7.a.p.7.9.7.5     N 7.p.5.u.p.p.=.5 ;   W xXxX",
"xXxXxXxXxXxXxX  j   1.x.k.k.l.k.j.k.k.k.k.k.k.k.j.v.v.j.k.v.v.k.k.k.k.3.7.7.7.u.7.7.7.5     N 8.7.8.5.7.s.7.n = X W xXxX",
"xXxXxXxXxXxXxX  x . ,.n.k.j.j.j.j.k.x.k.x.l.k.k.l.j.k.x.z.z.x.x.k.k.k.3.8.7.6.-.7.7.p.5     N 7.5.s.s.8.0.9.6 y   W xXxX",
"xXxXxXxXxXxXxX  l   %.0.e.6.v.n.j.j.k.k.j.j.j.k.l.k.v.k.j.j.j.j.w.w.w.8.7.7.8.u.p.9.7.5     N 7.u.=.5.5.7.s.2 -   W xXxX",
"xXxXxXxXxXxXxX  h   %.6.8.-.j.j.j.x.x.k.x.x.k.k.j.k.v.k.j.k.v.v.9.-.p.u.u.8.7.u.p.5.7.4     N 9.p.7.a.7.5.8.8 f   W xXxX",
"xXxXxXxXxXxXxX  k # &.0.8.9.k.b.l.k.k.k.k.j.k.k.j.x.v.k.j.k.k.j.7.7.7.7.u.7.6.-.8.9.7.5     B 7.a.7.s.a.f.5.7 O   R xXxX",
"xXxXxXxXxXxXxX  h   =.0.7.u.w.l.3.3.l.3.l.3.l.l.3.l.3.w.w.l.l.l.7.7.8.7.u.7.8.p.7.7.p.5     5 ;.*.*.$.*.$.J ! o.( X.xXxX",
"xXxXxXxXxXxXxX  j X &.8.p.9.7.p.p.-.6.p.=.u.d.-.7.-.u.p.-.-.-.u.9.d.9.8.8.8.7.p.7.p.7.5   #   O         >   xXxXxXxXxXxX",
"xXxXxXxXxXxXxX  j   &.8.-.8.7.7.u.;.0.0.8.-.5.a.7.7.8.8.8.8.7.8.p.p.7.5.7.7.7.7.7.-.p.B   . @ a j j h l k o xXxXxXxXxXxX",
"xXxXxXxXxXxXxX  j   %.8.7.8.7.7.w.8.;.=.5.a.7.p.7.7.7.7.7.7.7.8.7.5.a.p.7.7.p.-.8.7.a.3 O $           o     xXxXxXxXxXxX",
"xXxXxXxXxXxXxX  j   &.8.u.9.-.p.p.K 7 A 5 n n n B 5 5 6 6 B 5 5 ;.9.u.u.9.9.7.7.7.-.-.M :   b xXxXxXxXxXxXxXxXxXxXxXxXxX",
"xXxXxXxXxXxXxX  j   &.a.7.8.p.7.8.K     X = d ; ; ; ; q ; d - ; &.0.-.-.7.p.9.7.7.s.9.4 :   Q xXxXxXxXxXxXxXxXxXxXxXxXxX",
"xXxXxXxXxXxXxX  j   &.8.-.9.7.7.a.K   $ .     X                 $.e.8.8.6.u.p.8.7.7.9.7 : X Q xXxXxXxXxXxXxXxXxXxXxXxXxX",
"xXxXxXxXxXxXxX  j   %.8.7.9.-.p.5.L   2 . ' J.J.................U +.L %.0.p.7.7.p.7.s.6 -   Q xXxXxXxXxXxXxXxXxXxXxXxXxX",
"xXxXxXxXxXxXxX  j   %.8.-.9.7.7.e.K   a X xXxXxXxXxXxXxXxXxXxXxX` + % 7 ;.a.7.-.7.-.0.7 =   Q xXxXxXxXxXxXxXxXxXxXxXxXxX",
"xXxXxXxXxXxXxX  T % :.a.p.7.5.7.a.K : c X xXxXxXxXxXxXxXxXxXxXxX|   r P =.w.a.7.p.e.9.S f X ( xXxXxXxXxXxXxXxXxXxXxXxXxX",
"xXxXxXxXxXxXxXo     #.0.5.7.9.;.t.G   #   xXxXxXxXxXxXxXxXxXxXxX^ o   < i.0.=.9.q.q.i.1   O 9 xXxXxXxXxXxXxXxXxXxXxXxXxX",
"xXxXxXxXxXxXxXxXxXxX' X t 3 1 t   S.xXxXxXxXxXxXxXxXxXxXxXxXxXxXxXxXxXxX< 6 8 2 1 t . xXxXxXxXxXxXxXxXxXxXxXxXxXxXxXxXxX",
"xXxXxXxXxXxXxXxXxXxX .  x f a k o xXxXxXxXxXxXxXxXxXxXxXxXxXxXxXxXxXxXxXO l g i h z X xXxXxXxXxXxXxXxXxXxXxXxXxXxXxXxXxX",
"xXxXxXxXxXxXxXxXxXxX' o .     X O xXxXxXxXxXxXxXxXxXxXxXxXxXxXxXxXxXxXxX            . xXxXxXxXxXxXxXxXxXxXxXxXxXxXxXxXxX",
"xXxXxXxXxXxXxXxXxXxXxXxXxXxXxXxXxXxXxXxXxXxXxXxXxXxXxXxXxXxXxXxXxXxXxXxXxXxXxXxXxXxXxXxXxXxXxXxXxXxXxXxXxXxXxXxXxXxXxXxX",
"xXxXxXxXxXxXxXxXxXxXxXxXxXxXxXxXxXxXxXxXxXxXxXxXxXxXxXxXxXxXxXxXxXxXxXxXxXxXxXxXxXxXxXxXxXxXxXxXxXxXxXxXxXxXxXxXxXxXxXxX",
"xXxXxXxXxXxXxXxXxXxXxXxXxXxXxXxXxXxXxXxXxXxXxXxXxXxXxXxXxXxXxXxXxXxXxXxXxXxXxXxXxXxXxXxXxXxXxXxXxXxXxXxXxXxXxXxXxXxXxXxX",
"xXxXxXxXxXxXxXxXxXxXxXxXxXxXxXxXxXxXxXxXxXxXxXxXxXxXxXxXxXxXxXxXxXxXxXxXxXxXxXxXxXxXxXxXxXxXxXxXxXxXxXxXxXxXxXxXxXxXxXxX",
"xXxXxXxXxXxXxXxXxXxXxXxXxXxXxXxXxXxXxXxXxXxXxXxXxXxXxXxXxXxXxXxXxXxXxXxXxXxXxXxXxXxXxXxXxXxXxXxXxXxXxXxXxXxXxXxXxXxXxXxX",
"xXxXxXxXxXxXxXxXxXxXxXxXxXxXxXxXxXxXxXxXxXxXxXxXxXxXxXxXxXxXxXxXxXxXxXxXxXxXxXxXxXxXxXxXxXxXxXxXxXxXxXxXxXxXxXxXxXxXxXxX",
"xXxXxXxXxXxXxXxXxXxXxXxXxXxXxXxXxXxXxXxXxXxXxXxXxXxXxXxXxXxXxXxXxXxXxXxXxXxXxXxXxXxXxXxXxXxXxXxXxXxXxXxXxXxXxXxXxXxXxXxX"
};
