/* XPM */
static char *_a911cce96944df2d57f56a4b6048a5bTj70mfCLT9P03TBa[] = {
/* columns rows colors chars-per-pixel */
"60 60 237 2 ",
"   c None",
".  c #000204",
"X  c #0A0203",
"o  c #01020B",
"O  c #010A0B",
"+  c #08060A",
"@  c #150304",
"#  c #030413",
"$  c #000912",
"%  c #0C0A13",
"&  c #17191B",
"*  c #0A1118",
"=  c #200000",
"-  c #12211C",
";  c #181E28",
":  c #1C1E35",
">  c #1B2B36",
",  c #24252B",
"<  c #2B2B37",
"1  c #35393C",
"2  c #2C3530",
"3  c #4C0C1C",
"4  c #283745",
"5  c #353845",
"6  c #2E2E4C",
"7  c #753543",
"8  c #394648",
"9  c #334C54",
"0  c #474949",
"q  c #4B4C52",
"w  c #474B58",
"e  c #54585B",
"r  c #48565B",
"t  c #4C5A6C",
"y  c #4E5963",
"u  c #5A5C64",
"i  c #555965",
"p  c #615E68",
"a  c #5E6165",
"s  c #566667",
"d  c #586977",
"f  c #557176",
"g  c #666669",
"h  c #6B6C74",
"j  c #656B74",
"k  c #6D727B",
"l  c #697176",
"z  c #76767A",
"x  c #716D6D",
"c  c #674A4F",
"v  c #A3253B",
"b  c #993249",
"n  c #A92A44",
"m  c #AA3951",
"M  c #CF3856",
"N  c #8A4154",
"B  c #AB435C",
"V  c #B74A64",
"C  c #BE6273",
"Z  c #AC787C",
"A  c #2C9D71",
"S  c #389A75",
"D  c #34926D",
"F  c #32A678",
"G  c #2DA977",
"H  c #41907A",
"J  c #41A07E",
"K  c #5B3FA8",
"L  c #523DB2",
"P  c #596F84",
"I  c #5C768B",
"U  c #6C7584",
"Y  c #6C7984",
"T  c #6B7B8A",
"R  c #6A798B",
"E  c #747B85",
"W  c #7B7B84",
"Q  c #757C8A",
"!  c #7B7D8C",
"~  c #777487",
"^  c #7A7E91",
"/  c #696B92",
"(  c #5346B6",
")  c #6348AF",
"_  c #6961AC",
"`  c #5849CA",
"'  c #6E56C8",
"]  c #6351E5",
"[  c #786DCB",
"{  c #817C8B",
"}  c #847C91",
"|  c #807FBB",
" . c #C57487",
".. c #CA6C86",
"X. c #877AD3",
"o. c #6C838A",
"O. c #75818B",
"+. c #7B818B",
"@. c #798485",
"#. c #748492",
"$. c #7B8392",
"%. c #788896",
"&. c #7B9599",
"*. c #6D879B",
"=. c #58A688",
"-. c #50A98C",
";. c #68B499",
":. c #6EAC98",
">. c #738AA7",
",. c #6893AC",
"<. c #7393AD",
"1. c #7896AA",
"2. c #7495B2",
"3. c #7A9AB5",
"4. c #739DBB",
"5. c #7896B7",
"6. c #6E90B0",
"7. c #79B6A5",
"8. c #7AA3BF",
"9. c #74A8AF",
"0. c #6CC29F",
"q. c #7EC2A9",
"w. c #77A5C3",
"e. c #7EB1C2",
"r. c #82878C",
"t. c #87938F",
"y. c #828795",
"u. c #918792",
"i. c #8B939D",
"p. c #869D9B",
"a. c #939496",
"s. c #92938E",
"d. c #B7878E",
"f. c #8FA099",
"g. c #8997A5",
"h. c #8295B6",
"j. c #8D91A9",
"k. c #B19DA7",
"l. c #97A9AB",
"z. c #9BAAB5",
"x. c #98B7B7",
"c. c #8CB5AE",
"v. c #A3A3AC",
"b. c #A6ADB8",
"n. c #B7A9B2",
"m. c #A7B7B9",
"M. c #B3B4BB",
"N. c #B8B9B9",
"B. c #BDA4A0",
"V. c #CD8393",
"C. c #C3848D",
"Z. c #C69BA5",
"A. c #D990A1",
"S. c #D7A5AD",
"D. c #CCA9B5",
"F. c #C6BCBB",
"G. c #CAB9BB",
"H. c #D4B6BA",
"J. c #CEA7AE",
"K. c #93C4B4",
"L. c #99C5BB",
"P. c #86C8B0",
"I. c #A6C4BD",
"U. c #B6C3BD",
"Y. c #C2C1BD",
"T. c #928BC9",
"R. c #9B97C7",
"E. c #8D86CE",
"W. c #A29CCA",
"Q. c #89B7D3",
"!. c #8FAECA",
"~. c #AAB9C7",
"^. c #B5BCC4",
"/. c #B4BDCC",
"(. c #BABDCB",
"). c #B7B8C7",
"_. c #A5A6D5",
"`. c #B9BCD6",
"'. c #A7AECE",
"]. c #AC9EE6",
"[. c #B8B7E4",
"{. c #B0A8EB",
"}. c #C3BCC3",
"|. c #C3B9C6",
" X c #C0BFD1",
".X c #9BC9C8",
"XX c #98C4D6",
"oX c #ACCBC5",
"OX c #A8C8C8",
"+X c #B3C3C2",
"@X c #B4C2CB",
"#X c #BBC4CC",
"$X c #B7C8C8",
"%X c #BBC2D3",
"&X c #B3C5D5",
"*X c #B2D4D0",
"=X c #9ECBE1",
"-X c #9FDBF3",
";X c #BCC1E5",
":X c #A6D6EC",
">X c #AADEF5",
",X c #B5D8EA",
"<X c #ACE4ED",
"1X c #ADEAED",
"2X c #A6E9EF",
"3X c #B4E3EC",
"4X c #BCECED",
"5X c #B8E5EA",
"6X c #ADE5F5",
"7X c #ACECF3",
"8X c #ADEAFB",
"9X c #AAE4F8",
"0X c #B3E5F4",
"qX c #B3EBF4",
"wX c #B6E6FB",
"eX c #B3EBFC",
"rX c #B9EBFB",
"tX c #BAE9F6",
"yX c #B8F2FC",
"uX c #B2F1F3",
"iX c #C2C5CD",
"pX c #C4C6C6",
"aX c #C5C3D1",
"sX c #C5D4D7",
"dX c #C6E1DC",
"fX c #C5D1E3",
"gX c #C5E8ED",
"hX c #C2ECF3",
"jX c #C8EBF8",
"kX c #D8EDF0",
"lX c #CDF3F9",
"zX c #D8F7FA",
"xX c #D9F2EF",
"cX c #E9FBFE",
"vX c #F4FDFF",
"bX c #FDFDFF",
"nX c #FDF7FF",
/* pixels */
"                                                                                                                        ",
"                                                                                                                        ",
"                                                                                                                        ",
"                                                                                                                        ",
"                                                                                                                        ",
"                                                                                                                        ",
"                                                                                                                        ",
"                                                                                                                        ",
"                                                                                                                        ",
"                                                                                                                        ",
"                                                                                                                        ",
"                                                                                                                        ",
"                                                    a.z g g h ~ i.                                                      ",
"                                              l o O O . o o o o O . . l                                                 ",
"                                          g . . 8 o.x.OXOX*X.XOXl.@.8 O . e                                             ",
"                                        . . r x.5XhXgX1X4X4X4XlXxXxXdXm.s . +                                           ",
"                                      O o &.dXhX4X1X1X1X5X5XlXcXcXvXvXcXsXc.> . s                                       ",
"                                    . * l.jX5X0XuX6X6XeXqX5XhXzXvXvXcXvXcXkX$Xs . q                                     ",
"                                  O - x.lX5X8XeX8X8X8XeXyX7XqXqXgXvXbXbXbXcXkXfXl o a                                   ",
"                                . . f.gX3XeXeX9X8X8XeX8X8X8X6X7X5XgXvXnXnXbXgXdX,Xd o                                   ",
"                              z O r OXrXeXeX8X9X8XeXeXqX7X7X7X7XqX5XcXbXvXcXzX>XlX&Xo o                                 ",
"                              o 4 *.XX6XeX2X7XeX6XqXtXqXqX7X7X7XqXqX5XzXvXcXtXrX<XtXf.. s.                              ",
"                            z # I ,.XXyXeX7X1X1XqX0XtXtXeX7X7X7XqX6X4XyXhXjX6XwX7X4X*X. 2                               ",
"                            o ; ,.2.8.6XqX2XuX1X1X<X0X0XqXeXuXuXqX7X1X8XqX6X6XeX8X1XgXs . 0 f.                          ",
"                          w . 9 h.6.5.Q.1XuX7X7XuXrXrXwX0XwXjX6X7X7X2X1XyXqX>XrX9X7X.Xf . . . X e                       ",
"                      . . o o < _ 5.6.2.e.:XyX7XrXqX0XwXwXwXwX6X2X2XuXqX0XeXjXwX:Xe.1.f o u r.0 X X @ x                 ",
"                  . # # h b.e # 5 h.h.>.,.4.e.8X6XwXrXwXwXrXeX8X8X9X6XrXeX0X:XQ.4.,.h.y o u. X|.d.7 3 @ @ .             ",
"              . o 6 / ].(.#X^.q % : P 5.w.,.,.8.Q.=X,X>X>X>X9X-X>X9X:X=XQ.!.5.2.3.>.t # + n.(.G.V.B V N c & . X         ",
"          o . < / _ [ 5.[.(.+X^.g o # 9 R <.4.6.<.>.<.3.w.w.w.w.w.4.2.<.<.2.>.>.P 9 $ . s.pX#XG...n V m Z.D.s.e         ",
"      . + * { ).T.( ` ( T.`.^.$X(.t.1 o $ 4 P #.>.1.h.3.5.1.2.2.5.>.<.1.*.R t > $ $ 8 c.$XI.N.F.A.m B  .H.F.pX^.        ",
"    X + k ).pX`.[ ` ] ` _ sXiXN.+X$Xb.r.1 o o o ; 5 t d d d d d d t w < o o $ O y p..XP.;.P.oXU.N.B.Z.H.N.$X+XM.Z .     ",
"    X q v.(.(.`.].' ( ( _.%Xm.I.K.K.oX$XM.v.z q o o o o o o . o # o # + , i r.l.U.*Xq.D F J K.+XU.U.N.N.U.I.f.z p o     ",
"    . u E g.z.&X;X_.j._.`.OXK.=.F -.7.OX(. X(.N.N.v.a.t.@.@.r.r.y.i.v.b.`.@X@X#XoXL.0.G G F 7.@X@X^.(.iXb.$.k +.q +     ",
"    . e E Y *.g.'.&X X(.~.I.7.D G A -.OX^.|.#X}.S.S.H.F.pXiX#XiX#XfXW.T.!.`./.~.+XoX7.A G F 7.$X@X(.b.g.E E r.u . &     ",
"    . ; j %.o.Y *.g.).iX#XOX:.H -.S =.oX+XN.Y.Z.V m C S.F.M./.). XW.K L L E.;X%X/.$XK.;.=.;.~.@Xb.g.Q E r.+.u * .       ",
"      X < s #.#.O.U ^ j.z.&X.X7.=.=.x.OX$XU.N.Z v M n V.H.^./.`. XT.) ] L X.[.@X/.@XOX.XK.K.l.#.Q E ! E h w . o         ",
"        . . i Y $.! ~ ! $.g.x..X.X.XoXOXI.U.F.d.v M v d.G.^.`./. XR.) K _ {.[.%X@X~.~.z.p.o.Y o.+.+.z a , . %           ",
"          . . 8 j y.{ ! Q U o.1.g.x.m.$X$XpXU.J.C C  .H.}.+X&X&X X[.{.].{.[./.b.l.i.Q U Y @.+.+.z a 1 . .               ",
"            g . O w k ! ! ^ o.T k O.r.i.j.v.v.M.Z.Z.D.n.^.~.~.~.'.W.'.W.z.j.%.Q ~ E ^ $.Q ! j e , . . h                 ",
"                5 . o 5 p U ^ #.+.! { ~ ~ ~ R E { { W E O.O.o.T Q ^ U R U Y Q ! +.! k j y 4 # . . z                     ",
"                    g . o o 5 r s l z { } y.%.%.$.! ! +.O.@.O.@.^ } $.^ O.! z g i 5 . o . o u                           ",
"                          q + . . . + < q i i d j h k k k l l j h p i r 5 * o X X + , z                                 ",
"                                  h 1 + . o o . o . . . X . . . X . . . . & e                                           ",
"                                                  z x g g x Z r.                                                        ",
"                                                                                                                        ",
"                                                                                                                        ",
"                                                                                                                        ",
"                                                                                                                        ",
"                                                                                                                        ",
"                                                                                                                        ",
"                                                                                                                        ",
"                                                                                                                        ",
"                                                                                                                        ",
"                                                                                                                        ",
"                                                                                                                        ",
"                                                                                                                        ",
"                                                                                                                        ",
"                                                                                                                        ",
"                                                                                                                        ",
"                                                                                                                        "
};
