/* XPM */
static char *result[] = {
/* columns rows colors chars-per-pixel */
"60 60 237 2 ",
"   c #000101",
".  c #0B0000",
"X  c #050509",
"o  c #000B0B",
"O  c #0C0B09",
"+  c #1B0000",
"@  c #140302",
"#  c #001414",
"$  c #011C1C",
"%  c #0B1E1E",
"&  c #00111A",
"*  c #171718",
"=  c #000C14",
"-  c #230001",
";  c #2B0000",
":  c #270D0D",
">  c #330101",
",  c #3C0101",
"<  c #3B0B0B",
"1  c #261515",
"2  c #361313",
"3  c #1E1D24",
"4  c #002323",
"5  c #002B2B",
"6  c #002728",
"7  c #1A2929",
"8  c #003232",
"9  c #003A3A",
"0  c #193434",
"q  c #262828",
"w  c #372A2B",
"e  c #2A2A34",
"r  c #2B3637",
"t  c #37363A",
"y  c #332D35",
"u  c #2F2023",
"i  c #440000",
"p  c #4B0202",
"a  c #540000",
"s  c #5C0000",
"d  c #501F1F",
"f  c #630000",
"g  c #6B0000",
"h  c #7C0000",
"j  c #710202",
"k  c #6E1111",
"l  c #433A3A",
"z  c #54323A",
"x  c #673A3A",
"c  c #1B3442",
"v  c #343344",
"b  c #333A46",
"n  c #353B46",
"m  c #303044",
"M  c #004545",
"N  c #0F5453",
"B  c #125454",
"V  c #1E5555",
"C  c #194B4B",
"Z  c #3A4748",
"A  c #2B5355",
"S  c #3C6868",
"D  c #45494A",
"F  c #4B5354",
"G  c #4C5B5B",
"H  c #465555",
"J  c #535C5D",
"K  c #58585A",
"L  c #4D4A4F",
"P  c #6B5153",
"I  c #565F60",
"U  c #4C5F61",
"Y  c #4D6363",
"T  c #546464",
"R  c #5B6566",
"E  c #566969",
"W  c #5B6A6A",
"Q  c #596768",
"!  c #5D7576",
"~  c #576F71",
"^  c #636B6D",
"/  c #6A6B6B",
"(  c #656364",
")  c #666D72",
"_  c #657275",
"`  c #667778",
"'  c #757D7D",
"]  c #797477",
"[  c #786569",
"{  c #4F605E",
"}  c #820000",
"|  c #8B0101",
" . c #930000",
".. c #9B0000",
"X. c #970B0B",
"o. c #8D1414",
"O. c #A30000",
"+. c #AB0000",
"@. c #A30D0D",
"#. c #B50101",
"$. c #BA0000",
"%. c #B51717",
"&. c #8C2A2C",
"*. c #B92727",
"=. c #AF3535",
"-. c #C30000",
";. c #CB0101",
":. c #C40C0C",
">. c #D30000",
",. c #DC0101",
"<. c #DE1917",
"1. c #E40101",
"2. c #EB0101",
"3. c #E70C0B",
"4. c #F20101",
"5. c #FD0101",
"6. c #F50C0C",
"7. c #EA1414",
"8. c #EA1B1B",
"9. c #F91616",
"0. c #CD2C25",
"q. c #D62928",
"w. c #CD322D",
"e. c #CE3432",
"r. c #C93837",
"t. c #D63837",
"y. c #E92323",
"u. c #E52928",
"i. c #F62929",
"p. c #F93737",
"a. c #EA3636",
"s. c #8B5051",
"d. c #AB5D5D",
"f. c #AD5254",
"g. c #8B7777",
"h. c #8B7878",
"j. c #8A7778",
"k. c #876667",
"l. c #AD6667",
"z. c #B26565",
"x. c #B6686A",
"c. c #A37474",
"v. c #A97D7D",
"b. c #A77A7A",
"n. c #BB7C7E",
"m. c #C84B4B",
"M. c #FC4949",
"N. c #FB4545",
"B. c #FC5959",
"V. c #E45C5C",
"C. c #DA7979",
"Z. c #CC6E6F",
"A. c #FC6767",
"S. c #FE7474",
"D. c #FF7D7D",
"F. c #73807F",
"G. c #7B7E83",
"H. c #747B81",
"J. c #887D85",
"K. c #6C898A",
"L. c #768686",
"P. c #7C8B8C",
"I. c #788687",
"U. c #7D8F97",
"Y. c #7C9194",
"T. c #888489",
"R. c #828A93",
"E. c #8C9393",
"W. c #84949E",
"Q. c #859B9B",
"!. c #8C9B9B",
"~. c #879396",
"^. c #96939C",
"/. c #929C9C",
"(. c #9A8E8E",
"). c #AC8282",
"_. c #BA9094",
"`. c #8C9BA3",
"'. c #999EA2",
"]. c #91A1A1",
"[. c #9BACAC",
"{. c #9BA5A7",
"}. c #9EB1B1",
"|. c #8AA0A0",
" X c #A4B2B5",
".X c #ABB4B5",
"XX c #ABBABA",
"oX c #A4B8BB",
"OX c #B3BDBD",
"+X c #B2B6B6",
"@X c #A3ABAC",
"#X c #CD8989",
"$X c #E38585",
"%X c #E28C8C",
"&X c #FC8686",
"*X c #E19393",
"=X c #EB9696",
"-X c #ED9999",
";X c #FF9393",
":X c #FF9B9B",
">X c #F69898",
",X c #FEACAC",
"<X c #FAA5A5",
"1X c #FEB4B4",
"2X c #FEBCBC",
"3X c #F3B9B9",
"4X c #C6BFBF",
"5X c #A1C0BF",
"6X c #B7BEC1",
"7X c #B8C3C3",
"8X c #B5D2D2",
"9X c #C5CCCD",
"0X c #C8CACA",
"qX c #CAD5D5",
"wX c #DBD3D3",
"eX c #DEDBDB",
"rX c #D3D5D5",
"tX c #D1CFCF",
"yX c #FFC3C3",
"uX c #F4CBCB",
"iX c #FECDCD",
"pX c #F3C5C5",
"aX c #E3DBDB",
"sX c #E7D9D9",
"dX c #FED5D5",
"fX c #F4DDDD",
"gX c #FEDADA",
"hX c #F6D2D2",
"jX c #DCE1E1",
"kX c #E9E4E4",
"lX c #F3E3E3",
"zX c #FEE3E3",
"xX c #FDECEC",
"cX c #FEFDFD",
"vX c #F9F5F5",
"bX c #EDF8F8",
"nX c None",
/* pixels */
"nXnXnXnXnXnXnXnXnXnXnXnXnXnXnXnXnXnXnXnXnXnXnXnXnXnXnXnXnXnXnXnXnXnXnXnXnXnXnXnXnXnXnXnXnXnXnXnXnXnXnXnXnXnXnXnXnXnXnXnX",
"nXnXnXnXnXnXnXnXnXnXnXnXnXnXnXnXnXnXnXnXnXnXnXnXnXnXnXnXnXnXnXnXnXnXnXnXnXnXnXnXnXnXnXnXnXnXnXnXnXnXnXnXnXnXnXnXnXnXnXnX",
"nXnXnXnXnXnXnX- nXnXnXnXnXnXnXnXnXnXnXnXnXnXnXnXnXnXnXnXnXnXnXnXnXnXnXnXnXnXnXnXnXnXnXnXnXnXnXnXnXnXnXnXnXnXnXnXnXnXnXnX",
"nXr Q.].].Y.~ S P.].].].].].].].].].].].].].].].].].].].].].].].].].].].].].]./.].].].~.r t nXnXnXnXnXnXnXnXnXnXnXnXnXnX",
"nXkXgXdXgXgXdXiXgXgXgXgXdXgXgXgXgXdXgXgXgXdXgXgXdXgXgXgXgXgXdXgXgXgXgXgXdXgXgXgXgXgXgXdXwXK l nXnXnXnXnXnXnXnXnXnXnXnXnX",
"nX<X| } } } |  .} } } } } } } } } } } } } } } } } } } } } } } } } } } } } } } } } } h  .1XtX  nXnXnXnXnXnXnXnXnXnXnXnXnX",
"nXZ.  5 9 9 8 M N N B B N N N B B B B B B B B B B B B B B B B B B B B B B B B B M 9 9 o  .iX.X  nXnXnXnXnXnXnXnXnXnXnXnX",
"nXgX+.  D R R ^ ^ ^ ^ ^ ^ ^ ) ^ ^ ^ ^ ^ ^ ^ ^ ^ ^ ^ W ^ ^ ^ ^ ^ ^ ^ ^ ^ ^ ^ ^ ) ^ W ( D   r.zX`   nXnXnXnXnXnXnXnXnXnXnX",
"nXeX,Xs $ F W T H.R.U.U.U.U.U.~.W.W.W.W.W.W.W.W.W.W.`.`.W.W.W.W.W.W.W.W.W.W.W.~.Y.K.T J 0 @ *XfXZ nXnXnXnXnXnXnXnXnXnXnX",
"nXr sX$X; 5 J T U P f.d.d.d.z.d.z.z.z.z.z.z.z.z.z.z.x.x.z.z.z.z.z.z.z.z.z.z.z.d.d.f.z T J 4 f 1XqX  nXnXnXnXnXnXnXnXnXnX",
"nX  Y.gXm.  t T I u 0.t.e.e.e.e.w.w.w.w.w.w.w.w.w.w.w.w.w.w.w.w.w.w.e.e.e.e.e.e.e.0.h A W L   O.gX{.  nXnXnXnXnXnXnXnXnX",
"nXnX  .XiX|   D W U ^ ~.E.(.^.^.^.^.^.^.^.^.^.^.^.^.^.^.^.^.^.^.^.^.E.E.E.E.E.E.E.E.!.T.W E n   m.zX_   nXnXnXnXnXnXnXnX",
"nXnXnX  tX<Xa 4 K E ^ I.L.' I.' G.G.G.G.L.G.G.G.G.L.G.G.G.G.G.G.L.' ' ' F.F.' ' ' ' ' ] I R I 8 , -XwX3 nXnXnXnXnXnXnXnX",
"nXnXnXnXH lXC.  0 I T G ] I.L.I.L.L.L.L.L.L.L.L.L.L.L.L.L.L.L.L.L.L.I.I.I.I.I.L.L.I.L.L.Y.` T J 4 g pX0X  nXnXnXnXnXnXnX",
"nXnXnXnX  Q.gX*.  n R R R ] g.g.j.h.g.h.j.j.j.j.j.j.j.j.j.j.j.h.j.j.h.h.g.g.j.j.j.j.h.h.h.( U W L   *.gX!.  nXnXnXnXnXnX",
"nXnXnXnXnX  7XyX| o L W A h 3.y.y.y.8.8.8.8.8.8.8.8.8.8.7.7.7.7.7.7.7.8.8.8.y.y.y.y.y.y.y.>.p G Q b   Z.zXY + nXnXnXnXnX",
"nXnXnXnXnXnX  aX;Xi 4 K ~ Z s.c.c.c.v.v.b.v.b.v.v.b.v.v.).).).).).).).v.v.v.c.c.c.c.c.c.c.c.k.~ Q T 8 , <XtX  nXnXnXnXnX",
"nXnXnXnXnXnXnXW fXZ.  r R T ! [.[.[.}.}.}.}.}.}.}.}. X[.].].|.|.Q.Q.].}. X}.[.}.}.[.[.[.[.[.}.{.) T K $ } yX7X  nXnXnXnX",
"nXnXnXnXnXnXnX  Q.dX+.  Z T I W / / / / / / ^ / / K l                 . l K ) / / ) / / / / / ) ^ T E D   *.gXY.  nXnXnX",
"nXnXnXnXnXnXnXnX  0XyX}   F E Y ` !.Q.Q.Q.Q.!.~.D     R Y./.[.[.@X(.E.^     D E.].Y.Q.Q.`.`.`.`.`.K.Y W r   C.lXG l nXnX",
"nXnXnXnXnXnXnXnXnX0 aX$X, 4 J W T K d.l.l.l.k.Z   e I ^.@X@X{.[.[.J._.P.K y   D k.z.l.l.x.l.x.l.l.d.L R K 8 s ,XtX  nXnX",
"nXnXnXnXnXnXnXnXnXw Z nXm.  r R T w #.t.t.%.;   Z T Y U { J J { I &.K G Y { Z   s w.r.0.0.w.0.0.w.q. .0 T K o  .iX.X  nX",
"nXnXnXnXnXnXnXnXnXnXw S nX*.  D W T D J./   7 R.P.) ) _ _ _ _ _ ` f.[ _ _ _ F.' 4   ] T.T.J.T.T.J.T.T.T.` T D   =.zX' nX",
"nXnXnXnXnXnXnXnXnXnXnX  0X3Xf = F T W R.F * ].7XXX.X X X.X X X XoXn._.oX X.XXX7X!.  ) ^.^.^.~.R.R.R.P.R.) T R r   -XlXnX",
"nXnXnXnXnXnXnXnXnXnXnXnXZ aX%Xi 4 w q     / {.[.[. X XXXXXXXXXXXoX#X#X5X}.oX X[.!.F     @ @ .           3 q y q   h >XnX",
"nXnXnXnXnXnXnXnXnXnXnXnXX 7XdX..# @   X * 3 q y t t Z H H D D H C s.=.N D G W W U I r   o   X X X X O X       + # a V.nX",
"nXnXnXnXnXnXnXnXnXnXnX  +XzXZ.> # O X   q t Z r r e q q 7 q 7 q 8 &.#.8 @   H E T Q G *   X X   .   X     X + 4   C.zXnX",
"nXnXnXnXnXnXnXnXnXnX  7XgXf.  # .   X   H P.6XrXOX7X9X9X9X9X9XOX}.n.<.) G   D E T Q T t                   + 4 + C.xX{.nX",
"nXnXnXnXnXnXnXnXnX  9XiX%.  % @       O G Q L.'.@XXXOXXXXXXX{.E.H.f.2.[ N . Z Q T Q U b 3               + 4 . C.lX~.  nX",
"nXnXnXnXnXnXnXnX  9XiX+.  * .         1 J T G H E ` ' ' _ T { G A 0.5.u.x   n T Q T F v m X           + 6 ; $XlX`   nXnX",
"nXnXnXnXnXnXnX  tXyX+.  * .       X   * { E E W E { { T T T Q T f.5.5.5.>., v J T T D m v q         - 6 i $XlX`   nXnXnX",
"nXnXnXnXnXnX  tX2X..o * .           X * { T { { T { T T { T { I P w.5.8.&.  t I E G v v b y       - 4 p $XlX_   nXnXnXnX",
"nXnXnXnXnX  rX2X .o :                 X G ` F.P.R.R.R.R.R.R.I.' ! ( 3.q.C   e F F v m v v v 3   - 4 f &XkX!   nXnXnXnXnX",
"nXnXnXnX5 tX2Xj # :                 X   r F K J J I I I I J K F J M X.:.$ . 1 b m v v v m b e + 5 f >XlX_   nXnXnXnXnXnX",
"nXnX  W kX3Xh # :                   * 7 O                           1 X.2 % e b v v v v v v y # g ;XlXE nXnXnXnXnXnXnXnX",
"nX  E lX<Xf # :                     3 v r b v b v v b b b v b v b b c &.z c v v v v v m v n & } <XkXE nXnXnXnXnXnXnXnXnX",
"nX~.zX=Xs $ -   .   . .   .   . .   3 v v v v v v v v v v v v v v v m z z m v v v v v b t # } yXkXG nXnXnXnXnXnXnXnXnXnX",
"nXlX$Xp 8 1 % % % % % 4 % % % % % $ 7 b b n n b b n b b b b b b b b n b b b b b b b n b   ..yXeX0 nXnXnXnXnXnXnXnXnXnXnX",
"nXiXf                                                                                   ..yX0X    nXnXnXnXnXnXnXnXnXnXnX",
"nXzX>X-X-X=X=X=X$X%X*X%X$X=X=X$X$X*X%X$X*X*X*X*X*X*X%X%X$X*X*X%X$X=X=X%X%X*X%X$X*X*X*X%XgXqXY W ` E   nXnXnXnXnXnXnXnXnX",
"nXE.eXaXeXkXeXwXvXcXgXxXcXaXeXcXcXzXcXcXxXgXzXfXxXzXxXcXcXxXzXxXcXeXtXvXcXzXxXcXzXzXzXzXzXuXuXhXuXhXrXG nXnXnXnXnXnXnXnX",
"nXnX          Z sXD.2.N.dXI.^ fXA.2.&X2XM.2.2.2.y.i.N.&X2XB.2.p.dXP.  aX;X2.A.;X6.2.1.1.2.7.8.6.7.4.1XeXq nXnXnXnXnXnXnX",
"nXnXnXnXnXnX  XX1X>.8 +.D.tX7X:X$.2 >.5. .o < , s g f $.5.$.4 +.&XwX X2X>.p O.4.h o , > : - ; ; - p 4.2XV nXnXnXnXnXnXnX",
"nXnXnXnXnXnX  qX,X+.5 a a.xXxXA.j $ %.8.2 o X # 5 4 5 o.i.o.  q 2.2XbX<X$.5 k y.d 4 $ X X o   $ #   4.nXM nXnXnXnXnXnXnX",
"nXnXnXnXnXnX  7X,X$.4 1 ,.dXgX1.<   ;.1.;   X.-.-.,.,.2.i. .  #  .N.vX,X$.4 f 5.2.>.,.;.,   @.1.1.4.:XwX7 nXnXnXnXnXnXnX",
"nXnXnXnXnXnXnXY.yX>.o 4 -.1X2X;.4 ; 6.1.+ # -.S.2XiXiXiXA.| # - 4 >.<X<X$.4 f i.yXdX1X2.< # -.&XnXnXwXP.nXnXnXnXnXnXnXnX",
"nXnXnXnXnXnXnXY fXp.p #  .S.S. .# g p.u.- $ ;.<XcXvXvXbXS.| $ - o s a.M.#.$ s N.xX8XgX2.> 4 #.2X8XX r nXnXnXnXnXnXnXnXnX",
"nXnXnXnXnXnXnX0 wXS.h # s 9.6.f X O.N.t.- X -.p.p.p.N.2XS.| # > - X O.5.$.# s M.sX! pX8.> $ $.1XOX  nXnXnXnXnXnXnXnXnXnX",
"nXnXnXnXnXnXnX  0X<XO.4   1.,.X   -.B.t.-   a g g g } 2.p.|   } h   o 3.-.# s M.zXK.uX8.> 4 $.1X.XnXnXnXnXnXnXnXnXnXnXnX",
"nXnXnXnXnXnXnX  [.yX>.$   $.-.o , a.:X<.+ X   $ 5 4 5 :.i.|   | >.-   ..#.# s M.lXK.uX8.> 4 $.1X.X  nXnXnXnXnXnXnXnXnXnX",
"nXnXnXnXnXnXnXnXT uXa.p # | } # g A.2X1.-   X.-.-.$.-.p.N.| X h 5.O.o i j # s M.fXK.uX8.> $ $.1X.X  nXnXnXnXnXnXnXnXnXnX",
"nXnXnXnXnXnXnXnX  tX&X| $ , > 4 +.:XiX,.: # ;.S.1X,X,XiXS.| $ h p.i.s   . # a M.lXK.uX9.> 4 $.1X.X  nXnXnXnXnXnXnXnXnXnX",
"nXnXnXnXnXnXnXnX   X2X;.$ + + 4 >.yXdX,.1 4 -.,XcXcXbXbXS.| 4 h A.D.-.# > # s M.fXK.uX8.> 4 $.1X.X  nXnXnXnXnXnXnXnXnXnX",
"nXnXnXnXnXnXnXnXnX` uX2.,   o p 2.zXdX,.1 X ;.p.B.B.B.;XA.| 4 } S.dXp.h o # a M.fXK.uX8.> 4 $.1X.X  nXnXnXnXnXnXnXnXnXnX",
"nXnXnXnXnXnXnXnXnX$ wXD.| # o } A.kXyX,.1 . g } } } h ,.i.| # h B.bX2X>.6 # a M.fXK.uX8., $ #.1X.X  nXnXnXnXnXnXnXnXnXnX",
"nXnXnXnXnXnXnXnXnX  XX1X$.8 8 +.:XqX3X2.$ 4 4 5 5 5 5 &.9.o.8  .&XkXsXA.O.8 g M.sXK.uX2.4 8 $.2X.XnXnXnXnXnXnXnXnXnXnXnX",
"nXnXnXnXnXnXnXnXnXnX` fXM.+.O.9.dXY.sX;X>.#.+.O.......,.S.,. .,.yX]./.gXi.>.,.1X4X  sXS.#. .4.dXL.nXnXnXnXnXnXnXnXnXnXnX",
"nXnXnXnXnXnXnXnXnXnX  {.zX:X;XdX.X  I.fX2X<X<X:X;X;X;X1XlX,X;X1XaXD   0XfXyXgXrXR   /.gX:X;XiXtX  nXnXnXnXnXnXnXnXnXnXnX",
"nXnXnXnXnXnXnXnXnXnXnX  I.9XeX{.  nXnXF !..X7XqXjXjXjX7X_ OXjXOXD nXnX  ^ R.L.1 nXnX  E.rXeX[.q nXnXnXnXnXnXnXnXnXnXnXnX",
"nXnXnXnXnXnXnXnXnXnXnXnXnX    nXnXnXnXnXnXnXnX        nXnXnX    nXnXnXnXnXnXnXnXnXnXnXnX    nXnXnXnXnXnXnXnXnXnXnXnXnXnX"
};
