/* XPM */
static char *_a5fb83a17a14239e8048070cabccfa3RGb7LiuiQXy7K9bK[] = {
/* columns rows colors chars-per-pixel */
"60 60 7 1 ",
"  c none",
". c metalic",
"X c #FA3535",
"o c Black",
"O c brown",
"+ c #F29E9E",
"@ c white",
/* pixels */
"............................................................",
"............................................................",
"..oooooooooooooooooooooooooooooooooooooooooooooooooooooooo..",
"..oooooooooooooooooooooooooooooooooooooooooooooooooooooooo..",
"..ooOOOOOOOOOOOOOOOOOOOOOOOOOOOOOOOOOOOOOOOOOOOOOOOOOOOOoo..",
"..ooOOOOOOOOOOOOOOOOOOOOOOOOOOOOOOOOOOOOOOOOOOOOOOOOOOOOoo..",
"..ooOO++++++++++++++++++++++++++++++++++++++++++++++++OOoo..",
"..ooOO+@@@@@@@@@@@@@@@@@@@@@@@@@@@@@@@@@@@@@@@@@@@@@@+OOoo..",
"..ooOO+@@@@@@@@@@@@@@@@@@@@@@@@@@@@@@@@@@@@@@@@@@@@@@+OOoo..",
"..ooOO+@@++++++++++++++++++++++++++++++++++++++++++@@+OOoo..",
"..ooOO+@@+OOOOOOOOOOOOOOOOOOOOOOOOOOOOOOOOOOOOOOOO+@@+OOoo..",
"..ooOO+@@+OOOOOOOOOOOOOOOOOOOOOOOOOOOOOOOOOOOOOOOO+@@+OOoo..",
"..ooOO+@@+OOooooooooooooooooooooooooooooooooooooOO+@@+OOoo..",
"..ooOO+@@+OOooooooooooooooooooooooooooooooooooooOO+@@+OOoo..",
"..ooOO+@@+OOooXXXXXXXXXXXXXXXXXXXXXXXXXXXXXXXXooOO+@@+OOoo..",
"..ooOO+@@+OOooXXXXXXXXXXXXXXXXXXXXXXXXXXXXXXXXooOO+@@+OOoo..",
"..ooOO+@@+OOooXX                            XXooOO+@@+OOoo..",
"..ooOO+@@+OOooXX                            XXooOO+@@+OOoo..",
"..ooOO+@@+OOooXX                            XXooOO+@@+OOoo..",
"..ooOO+@@+OOooXX                            XXooOO+@@+OOoo..",
"..ooOO+@@+OOooXX                            XXooOO+@@+OOoo..",
"..ooOO+@@+OOooXX                            XXooOO+@@+OOoo..",
"..ooOO+@@+OOooXX                            XXooOO+@@+OOoo..",
"..ooOO+@@+OOooXX                            XXooOO+@@+OOoo..",
"..ooOO+@@+OOooXX                            XXooOO+@@+OOoo..",
"..ooOO+@@+OOooXX                            XXooOO+@@+OOoo..",
"..ooOO+@@+OOooXX                            XXooOO+@@+OOoo..",
"..ooOO+@@+OOooXX                            XXooOO+@@+OOoo..",
"..ooOO+@@+OOooXX                            XXooOO+@@+OOoo..",
"..ooOO+@@+OOooXX                            XXooOO+@@+OOoo..",
"..ooOO+@@+OOooXX                            XXooOO+@@+OOoo..",
"..ooOO+@@+OOooXX                            XXooOO+@@+OOoo..",
"..ooOO+@@+OOooXX                            XXooOO+@@+OOoo..",
"..ooOO+@@+OOooXX                            XXooOO+@@+OOoo..",
"..ooOO+@@+OOooXX                            XXooOO+@@+OOoo..",
"..ooOO+@@+OOooXX                            XXooOO+@@+OOoo..",
"..ooOO+@@+OOooXX                            XXooOO+@@+OOoo..",
"..ooOO+@@+OOooXX                            XXooOO+@@+OOoo..",
"..ooOO+@@+OOooXX                            XXooOO+@@+OOoo..",
"..ooOO+@@+OOooXX                            XXooOO+@@+OOoo..",
"..ooOO+@@+OOooXX                            XXooOO+@@+OOoo..",
"..ooOO+@@+OOooXX                            XXooOO+@@+OOoo..",
"..ooOO+@@+OOooXX                            XXooOO+@@+OOoo..",
"..ooOO+@@+OOooXX                            XXooOO+@@+OOoo..",
"..ooOO+@@+OOooXXXXXXXXXXXXXXXXXXXXXXXXXXXXXXXXooOO+@@+OOoo..",
"..ooOO+@@+OOooXXXXXXXXXXXXXXXXXXXXXXXXXXXXXXXXooOO+@@+OOoo..",
"..ooOO+@@+OOooooooooooooooooooooooooooooooooooooOO+@@+OOoo..",
"..ooOO+@@+OOooooooooooooooooooooooooooooooooooooOO+@@+OOoo..",
"..ooOO+@@+OOOOOOOOOOOOOOOOOOOOOOOOOOOOOOOOOOOOOOOO+@@+OOoo..",
"..ooOO+@@+OOOOOOOOOOOOOOOOOOOOOOOOOOOOOOOOOOOOOOOO+@@+OOoo..",
"..ooOO+@@++++++++++++++++++++++++++++++++++++++++++@@+OOoo..",
"..ooOO+@@@@@@@@@@@@@@@@@@@@@@@@@@@@@@@@@@@@@@@@@@@@@@+OOoo..",
"..ooOO+@@@@@@@@@@@@@@@@@@@@@@@@@@@@@@@@@@@@@@@@@@@@@@+OOoo..",
"..ooOO++++++++++++++++++++++++++++++++++++++++++++++++OOoo..",
"..ooOOOOOOOOOOOOOOOOOOOOOOOOOOOOOOOOOOOOOOOOOOOOOOOOOOOOoo..",
"..ooOOOOOOOOOOOOOOOOOOOOOOOOOOOOOOOOOOOOOOOOOOOOOOOOOOOOoo..",
"..oooooooooooooooooooooooooooooooooooooooooooooooooooooooo..",
"..oooooooooooooooooooooooooooooooooooooooooooooooooooooooo..",
"............................................................",
"............................................................"
};
